<svg xmlns="http://www.w3.org/2000/svg" version="1.1" id="Layer_1" x="0" y="0" viewBox="0 0 500 500"><style>.st1{fill:#fff}.st2{fill:#fca320}.st4{fill:#1a7c7b}.st5{fill:#fcad20}</style><path fill="#1db71d" d="M0 0h500v500H0z"/><path class="st1" d="M129.9 154.5s1.6.2 3.8.9c1.1.4 2.3.8 3.6 1.5 1.3.7 2.5 1.5 3.9 2.3 2.6 1.5 5.3 3 7.2 4.2 2 1.2 3.2 2 3.2 2l-.1.2s-1.4-.5-3.5-1.4c-2.1-.8-4.9-2-7.7-3.2-1.4-.6-2.8-1.1-4.1-1.7-1.3-.6-2.4-1.3-3.3-2-1.9-1.3-3-2.5-3-2.5v-.3z"/><path class="st2" d="M192.6 276.4c-18.9-6.6-37.4-23.7-45.1-41.5-3.9-9.1-4.5-17.3-1.6-23.8 9-20.3 37.5-13.9 38.7-13.6l-2.5 10.7c-.2 0-20.8-4.7-26.1 7.4-1.6 3.6-1 8.9 1.6 15 5.5 12.8 20.6 29.2 38.7 35.5l-3.7 10.3zM301.6 276.4l-3.6-10.3c18.1-6.3 33.2-22.6 38.7-35.5 2.6-6.1 3.2-11.4 1.6-15-5.4-12.1-25.9-7.4-26.1-7.4l-2.5-10.7c1.2-.3 29.6-6.7 38.7 13.6 2.9 6.5 2.3 14.7-1.6 23.8-7.7 17.8-26.3 34.9-45.2 41.5z"/><path d="M176 182.8l7.8 70.8c0 30.7 41.7 55.7 57.3 62.9v7.6h-.7c-2.4 0-4.3 1.9-4.3 4.3s1.9 4.3 4.3 4.3h.7v2.8c0 5.4-4.4 9.8-9.8 9.8-3.4 0-6.2 2.8-6.2 6.2v4.8H268v-4.8c0-3.4-2.8-6.2-6.2-6.2-5.4 0-9.8-4.4-9.8-9.8v-2.8h.5c2.4 0 4.3-1.9 4.3-4.3s-1.9-4.3-4.3-4.3h-.5v-8.2c15.2-8 57.3-32.9 57.3-62.3l7.8-70.8H176z" fill="#fcc020"/><path class="st4" d="M248.1 206.9l7.1 21.7H278L259.5 242l7.1 21.7-18.5-13.4-18.4 13.4 7-21.7-18.4-13.4h22.8z"/><path class="st5" d="M213.7 349.7h66c.5 0 .9.4.9.9v9.1c0 .5-.4.9-.9.9h-66c-.5 0-.9-.4-.9-.9v-9.1c0-.5.4-.9.9-.9z"/><path class="st4" d="M193.3 357.5h104.6v45.2H193.3z"/><path class="st1" d="M204.5 393.7h82.2c0-.4.4-.8.8-.8v-25.5c-.4 0-.8-.4-.8-.8h-82.2c0 .4-.4.8-.8.8v25.5c.5 0 .8.4.8.8z"/><path class="st5" d="M171.2 188.1h150.1c.5 0 1-.4 1-1v-7.8c0-.5-.4-1-1-1H171.2c-.5 0-1 .4-1 1v7.8c0 .6.5 1 1 1z"/><path class="st1" d="M343.5 194.4c5 10.8 13.5 14 24.3 9-10.8 5-14 13.5-9 24.3-5-10.8-13.5-14-24.3-9 10.8-4.9 13.9-13.5 9-24.3z"/><path class="st4" d="M221.8 374.3h44.6c.1 0 .2-.1.2-.2v-1.6c0-.1-.1-.2-.2-.2h-44.6c-.1 0-.2.1-.2.2v1.6c0 .1.1.2.2.2zM224.5 381.1h19.7c.1 0 .2-.1.2-.2v-1.8c0-.1-.1-.2-.2-.2h-19.7c-.1 0-.2.1-.2.2v1.8c0 .1.1.2.2.2zM235.2 387.5h19.7c.1 0 .2-.1.2-.2v-1.8c0-.1-.1-.2-.2-.2h-19.7c-.1 0-.2.1-.2.2v1.8c0 .1.1.2.2.2zM247.9 381.1h15.4c.1 0 .1-.1.1-.1v-1.8c0-.1-.1-.1-.1-.1h-15.4c-.1 0-.1.1-.1.1v1.8s0 .1.1.1z"/><path d="M156.8 406.5c0 2.1 40.4 3.7 90.2 3.7 49.8 0 90.2-1.7 90.2-3.7 0-2.1-40.4-3.7-90.2-3.7-49.8 0-90.2 1.7-90.2 3.7z" opacity=".3"/><path class="st1" d="M335.5 98s0 .6-.2 1.7c-.1.5-.2 1.2-.4 1.9s-.4 1.5-.6 2.4c-.5 1.7-1.2 3.7-2.1 5.7-1 2-2.2 4-3.3 6.1-1.1 2.1-2.2 4.2-3.3 6.2-1.1 2-2.1 3.8-2.9 5.3-1.7 3.1-2.9 5.2-2.9 5.2l-.4-.2s.8-2.3 2-5.6c.6-1.7 1.3-3.6 2.1-5.7s1.7-4.3 2.5-6.5c.9-2.2 1.6-4.5 2.5-6.5.9-2 2-3.8 3-5.3.5-.8 1-1.4 1.4-2 .4-.6.8-1.1 1.2-1.5.7-.8 1.1-1.3 1.1-1.3l.3.1zM244.2 69.6s.2.7.5 1.8c.2.6.3 1.3.5 2.1s.3 1.7.5 2.7c.2 1 .3 2.1.4 3.2.1 1.2.2 2.4.2 3.6 0 1.3 0 2.6-.1 3.9-.1 1.3-.1 2.7-.2 4-.1 2.7-.1 5.4-.3 7.9-.1 2.5-.2 4.9-.3 6.9-.2 4-.4 6.7-.4 6.7h-.4s-.3-2.7-.6-6.7c-.2-2-.4-4.4-.6-6.9-.2-2.5-.4-5.2-.6-7.9-.1-1.3-.2-2.7-.3-4l-.3-3.9c0-1.3 0-2.5.1-3.6.1-1.2.2-2.2.3-3.3.1-1 .2-1.9.4-2.8.1-.8.3-1.5.4-2.1.3-1.2.5-1.9.5-1.9l.3.3zM370.2 156.1s-1.1 1.2-3 2.4c-1 .6-2.1 1.3-3.4 1.9-1.3.6-2.7 1.1-4.1 1.6-2.8 1.1-5.6 2.3-7.8 3.1-2.1.8-3.6 1.3-3.6 1.3l-.1-.2s1.3-.8 3.3-1.9c2-1.2 4.6-2.6 7.3-4.1 1.3-.7 2.6-1.6 3.9-2.2 1.3-.6 2.5-1.1 3.6-1.4 2.2-.7 3.8-.8 3.8-.8l.1.3zM166.6 93.3s.5.4 1.2 1.2c.4.4.8.9 1.3 1.4.5.6 1 1.2 1.5 1.9 1.1 1.4 2.2 3.1 3.3 5 1 1.9 1.9 4.1 2.9 6.3 1 2.1 2 4.2 2.9 6.2.9 2 1.8 3.9 2.5 5.5 1.5 3.2 2.4 5.4 2.4 5.4l-.3.2s-1.3-1.9-3.3-4.9c-1-1.5-2.1-3.2-3.3-5-1.2-1.8-2.4-3.8-3.7-5.8-1.2-2-2.6-3.9-3.7-5.8s-1.9-3.8-2.5-5.5c-.3-.8-.6-1.6-.8-2.3-.2-.7-.4-1.3-.5-1.8-.2-1-.3-1.7-.3-1.7l.4-.3z"/></svg>