<?xml version='1.0' encoding='utf-8'?>
<svg xmlns="http://www.w3.org/2000/svg" version="1.1" id="Layer_1" x="0px" y="0px" viewBox="0 0 500 500" style="enable-background:new 0 0 500 500;"> <style type="text/css"> .st0{fill:#1DB71D;} .st1{fill:#FFFFFF;} .st2{fill:#FCA320;} .st3{fill:#FCC020;} .st4{fill:#1A7C7B;} .st5{fill:#FCAD20;} .st6{opacity:0.3;} </style> <rect class="st0" width="500" height="500"/> <g> <g> <g> <g> <path class="st1" d="M129.9,154.5c0,0,1.6,0.2,3.8,0.9c1.1,0.4,2.3,0.8,3.6,1.5c1.3,0.7,2.5,1.5,3.9,2.3c2.6,1.5,5.3,3,7.2,4.2 c2,1.2,3.2,2,3.2,2l-0.1,0.2c0,0-1.4-0.5-3.5-1.4c-2.1-0.8-4.9-2-7.7-3.2c-1.4-0.6-2.8-1.1-4.1-1.7c-1.3-0.6-2.4-1.3-3.3-2 c-1.9-1.3-3-2.5-3-2.5L129.9,154.5z"/> </g> </g> </g> <g> <g> <path class="st2" d="M192.6,276.4c-18.9-6.6-37.4-23.7-45.1-41.5c-3.9-9.1-4.5-17.3-1.6-23.8c9-20.3,37.5-13.9,38.7-13.6 l-2.5,10.7c-0.2,0-20.8-4.7-26.1,7.4c-1.6,3.6-1,8.9,1.6,15c5.5,12.8,20.6,29.2,38.7,35.5L192.6,276.4z"/> </g> <g> <path class="st2" d="M301.6,276.4l-3.6-10.3c18.1-6.3,33.2-22.6,38.7-35.5c2.6-6.1,3.2-11.4,1.6-15c-5.4-12.1-25.9-7.4-26.1-7.4 l-2.5-10.7c1.2-0.3,29.6-6.7,38.7,13.6c2.9,6.5,2.3,14.7-1.6,23.8C339.1,252.7,320.5,269.8,301.6,276.4z"/> </g> <g> <path class="st3" d="M176,182.8l7.8,70.8c0,30.7,41.7,55.7,57.3,62.9v7.6h-0.7c-2.4,0-4.3,1.9-4.3,4.3c0,2.4,1.9,4.3,4.3,4.3h0.7 v2.8c0,5.4-4.4,9.8-9.8,9.8c-3.4,0-6.2,2.8-6.2,6.2v4.8h42.9v-4.8c0-3.4-2.8-6.2-6.2-6.2c-5.4,0-9.8-4.4-9.8-9.8v-2.8h0.5 c2.4,0,4.3-1.9,4.3-4.3c0-2.4-1.9-4.3-4.3-4.3H252v-8.2c15.2-8,57.3-32.9,57.3-62.3l7.8-70.8H176z"/> </g> <g> <polygon class="st4" points="248.1,206.9 255.2,228.6 278,228.6 259.5,242 266.6,263.7 248.1,250.3 229.7,263.7 236.7,242 218.3,228.6 241.1,228.6 "/> </g> <g> <path class="st5" d="M213.7,349.7h66c0.5,0,0.9,0.4,0.9,0.9v9.1c0,0.5-0.4,0.9-0.9,0.9h-66c-0.5,0-0.9-0.4-0.9-0.9v-9.1 C212.8,350.1,213.2,349.7,213.7,349.7z"/> </g> <g> <rect x="193.3" y="357.5" class="st4" width="104.6" height="45.2"/> </g> <g> <path class="st1" d="M204.5,393.7h82.2c0-0.4,0.4-0.8,0.8-0.8v-25.5c-0.4,0-0.8-0.4-0.8-0.8h-82.2c0,0.4-0.4,0.8-0.8,0.8v25.5 C204.2,392.9,204.5,393.3,204.5,393.7z"/> </g> <g> <path class="st5" d="M171.2,188.1h150.1c0.5,0,1-0.4,1-1v-7.8c0-0.5-0.4-1-1-1H171.2c-0.5,0-1,0.4-1,1v7.8 C170.2,187.7,170.7,188.1,171.2,188.1z"/> </g> <g> <path class="st1" d="M343.5,194.4c5,10.8,13.5,14,24.3,9c-10.8,5-14,13.5-9,24.3c-5-10.8-13.5-14-24.3-9 C345.3,213.8,348.4,205.2,343.5,194.4z"/> </g> <g> <path class="st4" d="M221.8,374.3h44.6c0.1,0,0.2-0.1,0.2-0.2v-1.6c0-0.1-0.1-0.2-0.2-0.2h-44.6c-0.1,0-0.2,0.1-0.2,0.2v1.6 C221.6,374.2,221.7,374.3,221.8,374.3z"/> </g> <g> <path class="st4" d="M224.5,381.1h19.7c0.1,0,0.2-0.1,0.2-0.2v-1.8c0-0.1-0.1-0.2-0.2-0.2h-19.7c-0.1,0-0.2,0.1-0.2,0.2v1.8 C224.3,381,224.4,381.1,224.5,381.1z"/> </g> <g> <path class="st4" d="M235.2,387.5h19.7c0.1,0,0.2-0.1,0.2-0.2v-1.8c0-0.1-0.1-0.2-0.2-0.2h-19.7c-0.1,0-0.2,0.1-0.2,0.2v1.8 C235,387.4,235.1,387.5,235.2,387.5z"/> </g> <g> <path class="st4" d="M247.9,381.1h15.4c0.1,0,0.1-0.1,0.1-0.1v-1.8c0-0.1-0.1-0.1-0.1-0.1h-15.4c-0.1,0-0.1,0.1-0.1,0.1v1.8 C247.8,381,247.8,381.1,247.9,381.1z"/> </g> <g class="st6"> <path d="M156.8,406.5c0,2.1,40.4,3.7,90.2,3.7c49.8,0,90.2-1.7,90.2-3.7c0-2.1-40.4-3.7-90.2-3.7 C197.2,402.8,156.8,404.5,156.8,406.5z"/> </g> <g> <g> <g> <path class="st1" d="M335.5,98c0,0,0,0.6-0.2,1.7c-0.1,0.5-0.2,1.2-0.4,1.9c-0.2,0.7-0.4,1.5-0.6,2.4c-0.5,1.7-1.2,3.7-2.1,5.7 c-1,2-2.2,4-3.3,6.1c-1.1,2.1-2.2,4.2-3.3,6.2c-1.1,2-2.1,3.8-2.9,5.3c-1.7,3.1-2.9,5.2-2.9,5.2l-0.4-0.2c0,0,0.8-2.3,2-5.6 c0.6-1.7,1.3-3.6,2.1-5.7c0.8-2.1,1.7-4.3,2.5-6.5c0.9-2.2,1.6-4.5,2.5-6.5c0.9-2,2-3.8,3-5.3c0.5-0.8,1-1.4,1.4-2 c0.4-0.6,0.8-1.1,1.2-1.5c0.7-0.8,1.1-1.3,1.1-1.3L335.5,98z"/> </g> </g> </g> <g> <g> <g> <path class="st1" d="M244.2,69.6c0,0,0.2,0.7,0.5,1.8c0.2,0.6,0.3,1.3,0.5,2.1c0.2,0.8,0.3,1.7,0.5,2.7c0.2,1,0.3,2.1,0.4,3.2 c0.1,1.2,0.2,2.4,0.2,3.6c0,1.3,0,2.6-0.1,3.9c-0.1,1.3-0.1,2.7-0.2,4c-0.1,2.7-0.1,5.4-0.3,7.9c-0.1,2.5-0.2,4.9-0.3,6.9 c-0.2,4-0.4,6.7-0.4,6.7l-0.4,0c0,0-0.3-2.7-0.6-6.7c-0.2-2-0.4-4.4-0.6-6.9c-0.2-2.5-0.4-5.2-0.6-7.9c-0.1-1.3-0.2-2.7-0.3-4 c-0.1-1.3-0.2-2.6-0.3-3.9c0-1.3,0-2.5,0.1-3.6c0.1-1.2,0.2-2.2,0.3-3.3c0.1-1,0.2-1.9,0.4-2.8c0.1-0.8,0.3-1.5,0.4-2.1 c0.3-1.2,0.5-1.9,0.5-1.9L244.2,69.6z"/> </g> </g> </g> <g> <g> <g> <path class="st1" d="M370.2,156.1c0,0-1.1,1.2-3,2.4c-1,0.6-2.1,1.3-3.4,1.9c-1.3,0.6-2.7,1.1-4.1,1.6 c-2.8,1.1-5.6,2.3-7.8,3.1c-2.1,0.8-3.6,1.3-3.6,1.3l-0.1-0.2c0,0,1.3-0.8,3.3-1.9c2-1.2,4.6-2.6,7.3-4.1 c1.3-0.7,2.6-1.6,3.9-2.2c1.3-0.6,2.5-1.1,3.6-1.4c2.2-0.7,3.8-0.8,3.8-0.8L370.2,156.1z"/> </g> </g> </g> <g> <g> <g> <path class="st1" d="M166.6,93.3c0,0,0.5,0.4,1.2,1.2c0.4,0.4,0.8,0.9,1.3,1.4c0.5,0.6,1,1.2,1.5,1.9c1.1,1.4,2.2,3.1,3.3,5 c1,1.9,1.9,4.1,2.9,6.3c1,2.1,2,4.2,2.9,6.2c0.9,2,1.8,3.9,2.5,5.5c1.5,3.2,2.4,5.4,2.4,5.4l-0.3,0.2c0,0-1.3-1.9-3.3-4.9 c-1-1.5-2.1-3.2-3.3-5c-1.2-1.8-2.4-3.8-3.7-5.8c-1.2-2-2.6-3.9-3.7-5.8c-1.1-1.9-1.9-3.8-2.5-5.5c-0.3-0.8-0.6-1.6-0.8-2.3 c-0.2-0.7-0.4-1.3-0.5-1.8c-0.2-1-0.3-1.7-0.3-1.7L166.6,93.3z"/> </g> </g> </g> </g> </g> </svg>